# Blender v2.91.2 OBJ File: 'plank.blend'
# www.blender.org
mtllib plank.mtl
o Cube_Cube.006
v -50.000000 -24.640894 50.000000
v -50.000000 75.359108 50.000000
v -50.000000 -24.640894 -254.402084
v -50.000000 75.359108 -254.402084
v 244.850540 -24.640894 50.000000
v 244.850540 75.359108 50.000000
v 244.850540 -24.640894 -254.402084
v 244.850540 75.359108 -254.402084
v -58.105732 -32.746628 -262.507812
v -58.105732 -32.746628 58.105732
v -59.927456 75.359108 59.927456
v -59.927456 75.359108 -264.329559
v 252.956299 -32.746628 -262.507812
v 254.778000 75.359108 -264.329559
v 252.956299 -32.746628 58.105732
v 254.778000 75.359108 59.927456
v 97.425270 -24.640894 -254.402084
v 97.425270 75.359108 -254.402084
v 97.425270 -24.640894 50.000000
v 97.425270 75.359108 50.000000
v 97.425285 -32.746628 -262.507812
v 97.425278 75.359108 -264.329559
v 97.425285 -32.746628 58.105732
v 97.425270 75.359108 59.927456
v 105.272911 75.359108 -254.402084
v 105.272911 -24.640894 50.000000
v 105.801369 75.359108 -264.329559
v 105.704407 -32.746628 58.105732
v 105.272911 -24.640894 -254.402084
v 105.272911 75.359108 50.000000
v 105.704407 -32.746628 -262.507812
v 105.801353 75.359108 59.927456
v -50.000000 -24.640894 -102.201042
v -50.000000 75.359108 -102.201042
v 244.850540 -24.640894 -102.201042
v 244.850540 75.359108 -102.201042
v -58.105732 -32.746628 -102.201042
v -59.927456 75.359108 -102.201057
v 252.956299 -32.746628 -102.201042
v 254.778000 75.359108 -102.201042
v 97.425285 -32.746628 -102.201042
v 97.425270 -24.640894 -102.201042
v 105.704407 -32.746628 -102.201042
v 105.272911 -24.640894 -102.201042
v -50.000000 75.359108 -109.811089
v 244.850540 -24.640894 -109.811089
v -59.927456 75.359108 -110.307480
v 252.956299 -32.746628 -110.216377
v 97.425270 -24.640894 -109.811089
v 105.272911 -24.640894 -109.811089
v -50.000000 -24.640894 -109.811089
v 244.850540 75.359108 -109.811089
v -58.105732 -32.746628 -110.216377
v 254.778000 75.359108 -110.307465
v 97.425285 -32.746628 -110.216377
v 105.704407 -32.746628 -110.216377
v -50.000000 -24.640894 -109.811089
v -50.000000 -24.640894 -102.201042
v 97.425270 -24.640894 -102.201042
v 105.272911 -24.640894 -102.201042
v 244.850540 -24.640894 -102.201042
v 244.850540 -24.640894 -109.811089
v 97.425270 -24.640894 -109.811089
v 105.272911 -24.640894 -109.811089
v -50.000000 -4.640896 -109.811089
v -50.000000 -4.640896 -102.201042
v 97.425270 -4.640896 -102.201042
v 105.272911 -4.640896 -102.201042
v 244.850540 -4.640896 -102.201042
v 244.850540 -4.640896 -109.811089
v 97.425270 -4.640896 -109.811089
v 105.272911 -4.640896 -109.811089
vt 0.375000 0.131250
vt 0.375000 0.250000
vt 0.625000 0.250000
vt 0.625000 0.131250
vt 0.375000 0.381654
vt 0.375000 0.500000
vt 0.625000 0.500000
vt 0.625000 0.381654
vt 0.375000 0.625000
vt 0.375000 0.750000
vt 0.625000 0.750000
vt 0.625000 0.625000
vt 0.375000 0.875000
vt 0.375000 1.000000
vt 0.625000 1.000000
vt 0.625000 0.875000
vt 0.256654 0.625000
vt 0.256654 0.750000
vt 0.375000 0.131250
vt 0.625000 0.131250
vt 0.625000 0.250000
vt 0.375000 0.250000
vt 0.375000 0.381654
vt 0.625000 0.381654
vt 0.625000 0.500000
vt 0.375000 0.500000
vt 0.375000 0.625000
vt 0.625000 0.625000
vt 0.625000 0.750000
vt 0.375000 0.750000
vt 0.375000 0.875000
vt 0.625000 0.875000
vt 0.625000 1.000000
vt 0.375000 1.000000
vt 0.256654 0.625000
vt 0.256654 0.750000
vt 0.625000 0.375000
vt 0.625000 0.375000
vt 0.625000 0.868346
vt 0.625000 0.868346
vt 0.125000 0.625000
vt 0.250000 0.625000
vt 0.250000 0.750000
vt 0.125000 0.750000
vt 0.375000 0.868346
vt 0.375000 0.375000
vt 0.125000 0.625000
vt 0.125000 0.750000
vt 0.250000 0.750000
vt 0.250000 0.625000
vt 0.375000 0.868346
vt 0.375000 0.375000
vt 0.375000 0.618750
vt 0.256654 0.618750
vt 0.256654 0.618750
vt 0.375000 0.618750
vt 0.250000 0.618750
vt 0.256654 0.618750
vt 0.375000 0.625000
vt 0.256654 0.625000
vt 0.125000 0.618750
vt 0.625000 0.000000
vt 0.625000 0.125000
vt 0.625000 0.125000
vt 0.625000 0.000000
vt 0.625000 0.618750
vt 0.625000 0.618750
vt 0.375000 0.618750
vt 0.375000 0.000000
vt 0.375000 0.125000
vt 0.250000 0.625000
vt 0.375000 0.000000
vt 0.375000 0.125000
vt 0.256654 0.500000
vt 0.256654 0.500000
vt 0.125000 0.500000
vt 0.250000 0.500000
vt 0.125000 0.500000
vt 0.125000 0.618750
vt 0.250000 0.618750
vt 0.250000 0.500000
vt 0.125000 0.625000
vt 0.250000 0.625000
vt 0.125000 0.625000
vt 0.375000 0.618750
vt 0.375000 0.625000
vt 0.250000 0.618750
vt 0.125000 0.618750
vt 0.125000 0.618750
vt 0.250000 0.618750
vt 0.375000 0.125000
vt 0.375000 0.131250
vt 0.256654 0.625000
vt 0.256654 0.618750
vt 0.375000 0.125000
vt 0.375000 0.131250
vn 1.0000 0.0000 0.0000
vn 0.0000 0.0000 1.0000
vn -1.0000 0.0000 0.0000
vn 0.0000 0.0000 -1.0000
vn 0.0000 1.0000 0.0000
vn -0.9999 -0.0168 0.0000
vn 0.0000 -0.0168 -0.9999
vn 0.9999 -0.0168 0.0000
vn 0.0000 -0.0168 0.9999
vn 0.0000 -1.0000 0.0000
usemtl Material.006
s off
f 51/1/1 3/2/1 4/3/1 45/4/1
f 29/5/2 7/6/2 8/7/2 25/8/2
f 35/9/3 5/10/3 6/11/3 36/12/3
f 19/13/4 1/14/4 2/15/4 20/16/4
f 44/17/5 26/18/5 5/10/5 35/9/5
f 53/19/6 47/20/6 12/21/6 9/22/6
f 31/23/7 27/24/7 14/25/7 13/26/7
f 39/27/8 40/28/8 16/29/8 15/30/8
f 23/31/9 24/32/9 11/33/9 10/34/9
f 43/35/10 39/27/10 15/30/10 28/36/10
f 20/16/5 2/15/5 11/33/5 24/32/5
f 25/8/5 8/7/5 14/25/5 27/24/5
f 36/12/5 6/11/5 16/29/5 40/28/5
f 45/4/5 4/3/5 12/21/5 47/20/5
f 4/3/5 18/37/5 22/38/5 12/21/5
f 30/39/5 20/16/5 24/32/5 32/40/5
f 37/41/10 41/42/10 23/43/10 10/44/10
f 28/45/9 32/40/9 24/32/9 23/31/9
f 9/22/7 12/21/7 22/38/7 21/46/7
f 33/47/5 1/48/5 19/49/5 42/50/5
f 26/51/4 19/13/4 20/16/4 30/39/4
f 3/2/2 17/52/2 18/37/2 4/3/2
f 5/10/4 26/51/4 30/39/4 6/11/4
f 15/30/9 16/29/9 32/40/9 28/45/9
f 6/11/5 30/39/5 32/40/5 16/29/5
f 18/37/5 25/8/5 27/24/5 22/38/5
f 41/42/10 43/35/10 28/36/10 23/43/10
f 21/46/7 22/38/7 27/24/7 31/23/7
f 42/50/5 19/49/5 26/18/5 44/17/5
f 17/52/2 29/5/2 25/8/2 18/37/2
f 46/53/2 50/54/2 64/55/2 62/56/2
f 55/57/10 56/58/10 43/35/10 41/42/10
f 44/17/2 35/9/2 61/59/2 60/60/2
f 53/61/10 55/57/10 41/42/10 37/41/10
f 2/62/5 34/63/5 38/64/5 11/65/5
f 52/66/5 36/12/5 40/28/5 54/67/5
f 56/58/10 48/68/10 39/27/10 43/35/10
f 48/68/8 54/67/8 40/28/8 39/27/8
f 10/69/6 11/65/6 38/64/6 37/70/6
f 42/50/2 44/17/2 60/60/2 59/71/2
f 46/53/3 35/9/3 36/12/3 52/66/3
f 1/72/1 33/73/1 34/63/1 2/62/1
f 7/6/3 46/53/3 52/66/3 8/7/3
f 29/74/5 50/54/5 46/53/5 7/6/5
f 13/26/8 14/25/8 54/67/8 48/68/8
f 31/75/10 13/26/10 48/68/10 56/58/10
f 8/7/5 52/66/5 54/67/5 14/25/5
f 9/76/10 21/77/10 55/57/10 53/61/10
f 3/78/5 51/79/5 49/80/5 17/81/5
f 21/77/10 31/75/10 56/58/10 55/57/10
f 17/81/5 49/80/5 50/54/5 29/74/5
f 34/63/5 45/4/5 47/20/5 38/64/5
f 37/70/6 38/64/6 47/20/6 53/19/6
f 33/73/1 51/1/1 45/4/1 34/63/1
f 58/82/2 59/71/2 67/83/2 66/84/2
f 61/59/1 62/56/1 70/85/1 69/86/1
f 63/87/4 57/88/4 65/89/4 71/90/4
f 50/54/2 49/80/2 63/87/2 64/55/2
f 51/1/2 33/73/2 58/91/2 57/92/2
f 49/80/2 51/79/2 57/88/2 63/87/2
f 35/9/2 46/53/2 62/56/2 61/59/2
f 33/47/2 42/50/2 59/71/2 58/82/2
f 71/90/5 67/83/5 68/93/5 72/94/5
f 65/89/5 66/84/5 67/83/5 71/90/5
f 72/94/5 68/93/5 69/86/5 70/85/5
f 57/92/3 58/91/3 66/95/3 65/96/3
f 64/55/4 63/87/4 71/90/4 72/94/4
f 62/56/4 64/55/4 72/94/4 70/85/4
f 60/60/2 61/59/2 69/86/2 68/93/2
f 59/71/2 60/60/2 68/93/2 67/83/2
