# Blender v2.91.2 OBJ File: 'plank.blend'
# www.blender.org
mtllib plank.mtl
o Cube_Cube.006
v -50.000000 -24.640894 50.000000
v -50.000000 75.359108 50.000000
v -50.000000 -24.640894 -254.402084
v -50.000000 75.359108 -254.402084
v 244.850540 -24.640894 50.000000
v 244.850540 75.359108 50.000000
v 244.850540 -24.640894 -254.402084
v 244.850540 75.359108 -254.402084
v -58.105732 -32.746628 -262.507812
v -58.105732 -32.746628 58.105732
v -59.927456 75.359108 59.927456
v -59.927456 75.359108 -264.329559
v 252.956299 -32.746628 -262.507812
v 254.778000 75.359108 -264.329559
v 252.956299 -32.746628 58.105732
v 254.778000 75.359108 59.927456
vt 0.375000 0.000000
vt 0.375000 0.250000
vt 0.625000 0.250000
vt 0.625000 0.000000
vt 0.375000 0.500000
vt 0.625000 0.500000
vt 0.375000 0.750000
vt 0.625000 0.750000
vt 0.375000 1.000000
vt 0.625000 1.000000
vt 0.125000 0.500000
vt 0.125000 0.750000
vt 0.375000 0.000000
vt 0.625000 0.000000
vt 0.625000 0.250000
vt 0.375000 0.250000
vt 0.625000 0.500000
vt 0.375000 0.500000
vt 0.625000 0.750000
vt 0.375000 0.750000
vt 0.625000 1.000000
vt 0.375000 1.000000
vt 0.125000 0.500000
vt 0.125000 0.750000
vn 1.0000 0.0000 0.0000
vn 0.0000 0.0000 1.0000
vn -1.0000 0.0000 0.0000
vn 0.0000 0.0000 -1.0000
vn 0.0000 1.0000 0.0000
vn -0.9999 -0.0168 0.0000
vn 0.0000 -0.0168 -0.9999
vn 0.9999 -0.0168 0.0000
vn 0.0000 -0.0168 0.9999
vn 0.0000 -1.0000 0.0000
usemtl Material.006
s off
f 1/1/1 3/2/1 4/3/1 2/4/1
f 3/2/2 7/5/2 8/6/2 4/3/2
f 7/5/3 5/7/3 6/8/3 8/6/3
f 5/7/4 1/9/4 2/10/4 6/8/4
f 3/11/5 1/12/5 5/7/5 7/5/5
f 10/13/6 11/14/6 12/15/6 9/16/6
f 9/16/7 12/15/7 14/17/7 13/18/7
f 13/18/8 14/17/8 16/19/8 15/20/8
f 15/20/9 16/19/9 11/21/9 10/22/9
f 9/23/10 13/18/10 15/20/10 10/24/10
f 6/8/5 2/10/5 11/21/5 16/19/5
f 4/3/5 8/6/5 14/17/5 12/15/5
f 8/6/5 6/8/5 16/19/5 14/17/5
f 2/4/5 4/3/5 12/15/5 11/14/5
